<svg t="1718683829531" class="icon" viewBox="0 0 1024 1024" version="1.1"
    xmlns="http://www.w3.org/2000/svg" p-id="1163" width="200" height="200">
    <path
        d="M512 938.666667a426.666667 426.666667 0 1 1 426.666667-426.666667 426.666667 426.666667 0 0 1-426.666667 426.666667zM450.133333 305.92A42.666667 42.666667 0 0 0 384 341.333333v341.333334a42.666667 42.666667 0 0 0 66.133333 35.413333l256-170.666667a42.666667 42.666667 0 0 0 0-70.826666z"
        fill="#FFFFFF" p-id="1164"></path>
    <path
        d="M512 938.666667a426.666667 426.666667 0 1 1 426.666667-426.666667 426.666667 426.666667 0 0 1-426.666667 426.666667zM450.133333 305.92A42.666667 42.666667 0 0 0 384 341.333333v341.333334a42.666667 42.666667 0 0 0 66.133333 35.413333l256-170.666667a42.666667 42.666667 0 0 0 0-70.826666z"
        fill="#0C66FF" p-id="1165"></path>
</svg>