<svg t="1718683786811" class="icon" viewBox="0 0 1024 1024" version="1.1"
    xmlns="http://www.w3.org/2000/svg" p-id="1013" width="200" height="200">
    <path
        d="M512 938.666667a426.666667 426.666667 0 1 1 426.666667-426.666667 426.666667 426.666667 0 0 1-426.666667 426.666667zM395.52 356.693333a38.826667 38.826667 0 0 0-38.826667 38.826667v232.533333a38.826667 38.826667 0 0 0 38.826667 38.826667h232.533333a38.826667 38.826667 0 0 0 38.826667-38.826667V395.52a38.826667 38.826667 0 0 0-38.826667-38.826667z"
        fill="#FFFFFF" p-id="1014"></path>
    <path
        d="M512 938.666667a426.666667 426.666667 0 1 1 426.666667-426.666667 426.666667 426.666667 0 0 1-426.666667 426.666667zM395.52 356.693333a38.826667 38.826667 0 0 0-38.826667 38.826667v232.533333a38.826667 38.826667 0 0 0 38.826667 38.826667h232.533333a38.826667 38.826667 0 0 0 38.826667-38.826667V395.52a38.826667 38.826667 0 0 0-38.826667-38.826667z"
        fill="#0C66FF" p-id="1015"></path>
</svg>